<?xml version="1.0" encoding="UTF-8" standalone="no"?>
<!-- Generator: Adobe Illustrator 18.0.0, SVG Export Plug-In . SVG Version: 6.00 Build 0)  -->

<svg
   xmlns:dc="http://purl.org/dc/elements/1.1/"
   xmlns:cc="http://creativecommons.org/ns#"
   xmlns:rdf="http://www.w3.org/1999/02/22-rdf-syntax-ns#"
   xmlns:svg="http://www.w3.org/2000/svg"
   xmlns="http://www.w3.org/2000/svg"
   xmlns:sodipodi="http://sodipodi.sourceforge.net/DTD/sodipodi-0.dtd"
   xmlns:inkscape="http://www.inkscape.org/namespaces/inkscape"
   version="1.1"
   id="Layer_1"
   x="0px"
   y="0px"
   viewBox="0 0 595.3 841.9"
   enable-background="new 0 0 595.3 841.9"
   xml:space="preserve"
   inkscape:version="0.48.5 r"
   width="100%"
   height="100%"
   sodipodi:docname="logo1.svg"><metadata
   id="metadata55"><rdf:RDF><cc:Work
       rdf:about=""><dc:format>image/svg+xml</dc:format><dc:type
         rdf:resource="http://purl.org/dc/dcmitype/StillImage" /><dc:title></dc:title></cc:Work></rdf:RDF></metadata><defs
   id="defs53" /><sodipodi:namedview
   pagecolor="#ffffff"
   bordercolor="#666666"
   borderopacity="1"
   objecttolerance="10"
   gridtolerance="10"
   guidetolerance="10"
   inkscape:pageopacity="0"
   inkscape:pageshadow="2"
   inkscape:window-width="1311"
   inkscape:window-height="744"
   id="namedview51"
   showgrid="false"
   inkscape:zoom="0.56063665"
   inkscape:cx="375.43754"
   inkscape:cy="427.60536"
   inkscape:window-x="55"
   inkscape:window-y="24"
   inkscape:window-maximized="1"
   inkscape:current-layer="Layer_1" />
<path
   fill="#656564"
   d="M518.5,300.3c-26.7-53.1-144.5-47.6-263,11.9C137.3,371.6,62.4,462.8,88.2,516.1  c25.9,53.5,143.4,48.7,262.5-10.9C470.1,445.5,545.3,353.6,518.5,300.3z M367.7,485.1c-99.3,49.8-195.2,51.8-214.2,5.8  C135,445.9,197,371.4,292,323.3c95.4-48.3,191.2-53.2,214-10C529.3,357.6,467.5,435.1,367.7,485.1z"
   id="path3" />
<g
   id="g5"
   transform="translate(-6,4)">
	<rect
   x="208.8"
   y="383.89999"
   width="175.3"
   height="156.5"
   id="rect7"
   style="fill:none" />
	<path
   d="M 220.3,492 V 383.9 H 276 c 10.3,0 18.2,0.9 23.7,2.7 5.5,1.8 9.9,5.1 13.2,9.8 3.3,4.8 5,10.6 5,17.5 0,6 -1.3,11.2 -3.8,15.5 -2.6,4.4 -6.1,7.9 -10.5,10.6 -2.9,1.7 -6.8,3.1 -11.7,4.3 4,1.3 6.9,2.7 8.7,4 1.2,0.9 3,2.8 5.3,5.7 2.3,2.9 3.9,5.1 4.7,6.7 l 16.2,31.3 h -37.7 l -17.9,-33 c -2.3,-4.3 -4.3,-7.1 -6,-8.3 -2.4,-1.7 -5.1,-2.5 -8.2,-2.5 h -2.9 V 492 h -33.8 z m 33.6,-64.3 H 268 c 1.5,0 4.5,-0.5 8.8,-1.5 2.2,-0.4 4,-1.6 5.4,-3.4 1.4,-1.8 2.1,-3.9 2.1,-6.3 0,-3.5 -1.1,-6.2 -3.3,-8 -2.2,-1.9 -6.4,-2.8 -12.5,-2.8 h -14.7 v 22 z"
   id="path9"
   inkscape:connector-curvature="0"
   style="fill:#4d576d" />
</g>
<g
   id="g11"
   transform="translate(-2,4)">
	<rect
   x="342.39999"
   y="301.70001"
   width="171.89999"
   height="119.4"
   id="rect13"
   style="fill:none" />
	<path
   d="m 343.7,319 7.6,-0.5 c 0.2,1.2 0.5,2.2 1,2.8 0.8,1 2,1.6 3.5,1.6 1.1,0 2,-0.3 2.6,-0.8 0.6,-0.5 0.9,-1.2 0.9,-1.9 0,-0.7 -0.3,-1.3 -0.9,-1.8 -0.6,-0.5 -1.9,-1 -4.1,-1.5 -3.5,-0.8 -6,-1.8 -7.5,-3.1 -1.5,-1.3 -2.3,-3 -2.3,-5 0,-1.3 0.4,-2.6 1.2,-3.8 0.8,-1.2 1.9,-2.1 3.5,-2.8 1.6,-0.7 3.7,-1 6.3,-1 3.3,0 5.8,0.6 7.5,1.8 1.7,1.2 2.8,3.2 3.1,5.8 l -7.5,0.4 c -0.2,-1.2 -0.6,-2 -1.3,-2.5 -0.7,-0.5 -1.5,-0.8 -2.6,-0.8 -0.9,0 -1.6,0.2 -2.1,0.6 -0.5,0.4 -0.7,0.9 -0.7,1.4 0,0.4 0.2,0.8 0.6,1.1 0.4,0.3 1.3,0.7 2.7,0.9 3.5,0.8 6,1.5 7.5,2.3 1.5,0.8 2.6,1.7 3.3,2.9 0.7,1.2 1,2.4 1,3.8 0,1.7 -0.5,3.2 -1.4,4.6 -0.9,1.4 -2.2,2.5 -3.8,3.2 -1.6,0.7 -3.7,1.1 -6.2,1.1 -4.4,0 -7.4,-0.8 -9.1,-2.5 -1.7,-1.7 -2.6,-3.7 -2.8,-6.3 z"
   id="path15"
   inkscape:connector-curvature="0"
   style="fill:#4d4b4c" />
	<path
   d="m 371,301.7 h 13.2 c 2.9,0 5,0.7 6.5,2.1 1.5,1.4 2.2,3.3 2.2,5.9 0,2.6 -0.8,4.6 -2.3,6.1 -1.5,1.5 -4,2.2 -7.2,2.2 H 379 v 9.6 h -8 v -25.9 z m 8,11 h 2 c 1.5,0 2.6,-0.3 3.2,-0.8 0.6,-0.5 0.9,-1.2 0.9,-2 0,-0.8 -0.3,-1.5 -0.8,-2.1 -0.5,-0.6 -1.6,-0.8 -3,-0.8 H 379 v 5.7 z"
   id="path17"
   inkscape:connector-curvature="0"
   style="fill:#4d4b4c" />
	<path
   d="m 396.6,301.7 h 7.2 v 8.9 c 0.7,-0.8 1.5,-1.3 2.4,-1.7 0.9,-0.4 1.9,-0.6 3,-0.6 2.3,0 4.2,0.8 5.6,2.5 1.4,1.7 2.2,4 2.2,7 0,2 -0.3,3.8 -1,5.4 -0.7,1.6 -1.6,2.7 -2.8,3.5 -1.2,0.8 -2.5,1.2 -4,1.2 -1.3,0 -2.4,-0.3 -3.4,-0.8 -0.8,-0.4 -1.6,-1.2 -2.6,-2.4 v 2.8 h -6.7 v -25.8 z m 7.2,16.4 c 0,1.6 0.3,2.8 0.9,3.5 0.6,0.7 1.4,1.1 2.3,1.1 0.9,0 1.6,-0.4 2.2,-1.1 0.6,-0.7 0.9,-1.9 0.9,-3.6 0,-1.5 -0.3,-2.6 -0.9,-3.3 -0.6,-0.7 -1.3,-1 -2.1,-1 -1,0 -1.8,0.4 -2.4,1.1 -0.6,0.7 -0.9,1.8 -0.9,3.3 z"
   id="path19"
   inkscape:connector-curvature="0"
   style="fill:#4d4b4c" />
	<path
   d="m 361.9,344.9 h 7.9 v 15.4 c 0,1.5 -0.2,3 -0.7,4.3 -0.5,1.3 -1.2,2.5 -2.2,3.5 -1,1 -2.1,1.7 -3.2,2.1 -1.5,0.6 -3.4,0.9 -5.6,0.9 -1.3,0 -2.6,-0.1 -4.1,-0.3 -1.5,-0.2 -2.7,-0.5 -3.7,-1 -1,-0.5 -1.9,-1.3 -2.7,-2.2 -0.8,-1 -1.4,-2 -1.7,-3 -0.5,-1.6 -0.7,-3.1 -0.7,-4.4 v -15.4 h 7.9 v 15.7 c 0,1.4 0.4,2.5 1.2,3.3 0.8,0.8 1.9,1.2 3.2,1.2 1.4,0 2.4,-0.4 3.2,-1.2 0.8,-0.8 1.2,-1.9 1.2,-3.3 v -15.6 z"
   id="path21"
   inkscape:connector-curvature="0"
   style="fill:#4d4b4c" />
	<path
   d="m 373.3,365.5 7.1,-0.7 c 0.3,0.8 0.7,1.4 1.2,1.8 0.5,0.4 1.2,0.5 2.1,0.5 1,0 1.7,-0.2 2.2,-0.6 0.4,-0.3 0.6,-0.7 0.6,-1.1 0,-0.5 -0.3,-0.9 -0.8,-1.2 -0.4,-0.2 -1.4,-0.4 -3.1,-0.7 -2.5,-0.4 -4.2,-0.8 -5.2,-1.2 -1,-0.4 -1.8,-1 -2.4,-1.9 -0.6,-0.9 -1,-1.9 -1,-3 0,-1.2 0.4,-2.3 1.1,-3.2 0.7,-0.9 1.7,-1.6 3,-2 1.3,-0.4 2.9,-0.7 5,-0.7 2.2,0 3.9,0.2 4.9,0.5 1,0.3 1.9,0.9 2.7,1.6 0.8,0.7 1.3,1.7 1.8,2.9 l -6.8,0.7 c -0.2,-0.6 -0.5,-1 -0.9,-1.3 -0.6,-0.4 -1.2,-0.6 -2,-0.6 -0.8,0 -1.4,0.1 -1.8,0.4 -0.4,0.3 -0.6,0.6 -0.6,1 0,0.5 0.2,0.8 0.7,1 0.5,0.2 1.5,0.4 3.1,0.6 2.4,0.3 4.1,0.6 5.3,1.1 1.2,0.5 2,1.2 2.7,2.1 0.7,0.9 0.9,1.9 0.9,2.9 0,1.1 -0.3,2.1 -1,3.1 -0.7,1 -1.7,1.8 -3.1,2.4 -1.4,0.6 -3.3,0.9 -5.7,0.9 -3.4,0 -5.8,-0.5 -7.3,-1.5 -1.5,-1 -2.3,-2 -2.7,-3.8 z"
   id="path23"
   inkscape:connector-curvature="0"
   style="fill:#4d4b4c" />
	<path
   d="M 417.3,363.1 H 403 c 0.1,1.1 0.4,2 0.9,2.6 0.7,0.8 1.6,1.2 2.7,1.2 0.7,0 1.4,-0.2 2,-0.5 0.4,-0.2 0.8,-0.6 1.2,-1.2 l 7,0.7 c -1.1,1.9 -2.4,3.2 -3.9,4 -1.5,0.8 -3.7,1.2 -6.6,1.2 -2.5,0 -4.4,-0.3 -5.8,-1 -1.4,-0.7 -2.6,-1.8 -3.5,-3.3 -0.9,-1.5 -1.4,-3.3 -1.4,-5.4 0,-2.9 0.9,-5.3 2.8,-7.1 1.9,-1.8 4.5,-2.7 7.7,-2.7 2.7,0 4.8,0.4 6.3,1.2 1.5,0.8 2.7,2 3.5,3.5 0.8,1.5 1.2,3.5 1.2,6 v 0.8 z m -7.3,-3.4 c -0.1,-1.4 -0.5,-2.4 -1.1,-3 -0.6,-0.6 -1.4,-0.9 -2.4,-0.9 -1.1,0 -2,0.5 -2.7,1.4 -0.4,0.6 -0.7,1.4 -0.8,2.5 h 7 z"
   id="path25"
   inkscape:connector-curvature="0"
   style="fill:#4d4b4c" />
	<path
   d="m 420.7,352 h 6.7 v 3.1 c 0.6,-1.3 1.3,-2.2 2,-2.7 0.7,-0.5 1.5,-0.7 2.5,-0.7 1.1,0 2.2,0.3 3.5,1 l -2.2,5.1 c -0.8,-0.4 -1.5,-0.5 -2,-0.5 -0.9,0 -1.7,0.4 -2.2,1.2 -0.7,1.1 -1.1,3.1 -1.1,6.1 v 6.3 h -7.2 V 352 z"
   id="path27"
   inkscape:connector-curvature="0"
   style="fill:#4d4b4c" />
	<path
   d="m 358,404.6 v -5.4 h 12.3 v 11 c -2.4,1.6 -4.4,2.7 -6.2,3.3 -1.8,0.6 -4,0.9 -6.4,0.9 -3.1,0 -5.6,-0.5 -7.5,-1.6 -1.9,-1.1 -3.4,-2.6 -4.5,-4.7 -1.1,-2.1 -1.6,-4.4 -1.6,-7.1 0,-2.8 0.6,-5.3 1.7,-7.3 1.1,-2 2.9,-3.7 5.1,-4.7 1.7,-0.8 4.1,-1.2 7,-1.2 2.8,0 5,0.3 6.4,0.8 1.4,0.5 2.6,1.3 3.5,2.4 0.9,1.1 1.6,2.5 2.1,4.1 l -7.7,1.4 c -0.3,-1 -0.9,-1.7 -1.6,-2.2 -0.7,-0.5 -1.7,-0.8 -2.9,-0.8 -1.7,0 -3.1,0.6 -4.2,1.8 -1.1,1.2 -1.6,3.1 -1.6,5.8 0,2.8 0.5,4.8 1.6,6 1.1,1.2 2.5,1.8 4.4,1.8 0.9,0 1.7,-0.1 2.5,-0.4 0.8,-0.3 1.7,-0.7 2.8,-1.3 v -2.4 H 358 z"
   id="path29"
   inkscape:connector-curvature="0"
   style="fill:#4d4b4c" />
	<path
   d="m 374.7,395.2 h 6.7 v 3.1 c 0.6,-1.3 1.3,-2.2 2,-2.7 0.7,-0.5 1.5,-0.7 2.5,-0.7 1.1,0 2.2,0.3 3.5,1 l -2.2,5.1 c -0.8,-0.4 -1.5,-0.5 -2,-0.5 -0.9,0 -1.7,0.4 -2.2,1.2 -0.7,1.1 -1.1,3.1 -1.1,6.1 v 6.3 h -7.2 v -18.9 z"
   id="path31"
   inkscape:connector-curvature="0"
   style="fill:#4d4b4c" />
	<path
   d="m 390.3,404.6 c 0,-2.8 1,-5.2 2.9,-7 1.9,-1.8 4.5,-2.8 7.8,-2.8 3.7,0 6.6,1.1 8.5,3.3 1.5,1.7 2.3,3.9 2.3,6.5 0,2.9 -1,5.2 -2.9,7.1 -1.9,1.9 -4.5,2.8 -7.9,2.8 -3,0 -5.4,-0.8 -7.3,-2.3 -2.3,-2.1 -3.4,-4.5 -3.4,-7.6 z m 7.2,0 c 0,1.7 0.3,2.9 1,3.7 0.7,0.8 1.5,1.2 2.5,1.2 1,0 1.9,-0.4 2.5,-1.2 0.6,-0.8 1,-2 1,-3.8 0,-1.6 -0.3,-2.8 -1,-3.6 -0.7,-0.8 -1.5,-1.2 -2.5,-1.2 -1,0 -1.9,0.4 -2.6,1.2 -0.7,0.8 -0.9,2.1 -0.9,3.7 z"
   id="path33"
   inkscape:connector-curvature="0"
   style="fill:#4d4b4c" />
	<path
   d="m 434.8,413.9 h -6.7 v -3 c -1,1.2 -2,2.1 -3,2.7 -1,0.6 -2.3,0.8 -3.7,0.8 -2,0 -3.5,-0.6 -4.6,-1.8 -1.1,-1.2 -1.7,-3 -1.7,-5.4 v -11.9 h 7.2 v 10.3 c 0,1.2 0.2,2 0.7,2.5 0.5,0.5 1,0.7 1.8,0.7 0.9,0 1.6,-0.3 2.1,-1 0.5,-0.7 0.8,-1.8 0.8,-3.5 v -9 h 7.2 v 18.6 z"
   id="path35"
   inkscape:connector-curvature="0"
   style="fill:#4d4b4c" />
	<path
   d="m 439.2,421 v -25.8 h 6.7 v 2.8 c 0.9,-1.2 1.8,-1.9 2.5,-2.4 1,-0.6 2.2,-0.8 3.5,-0.8 2.5,0 4.4,1 5.8,2.9 1.4,1.9 2,4.3 2,7.1 0,3.1 -0.7,5.5 -2.2,7.1 -1.5,1.6 -3.4,2.5 -5.6,2.5 -1.1,0 -2.1,-0.2 -3,-0.6 -0.9,-0.4 -1.7,-0.9 -2.4,-1.7 v 8.9 h -7.3 z m 7.2,-16.4 c 0,1.5 0.3,2.6 0.9,3.3 0.6,0.7 1.4,1.1 2.4,1.1 0.8,0 1.5,-0.3 2.1,-1 0.6,-0.7 0.8,-1.8 0.8,-3.5 0,-1.5 -0.3,-2.6 -0.9,-3.3 -0.6,-0.7 -1.3,-1.1 -2.1,-1.1 -0.9,0 -1.7,0.4 -2.3,1.1 -0.6,0.7 -0.9,1.8 -0.9,3.4 z"
   id="path37"
   inkscape:connector-curvature="0"
   style="fill:#4d4b4c" />
</g>
<g
   id="g39">
</g>
<g
   id="g41">
</g>
<g
   id="g43">
</g>
<g
   id="g45">
</g>
<g
   id="g47">
</g>
<g
   id="g49">
</g>
</svg>